<?xml version="1.0" standalone="no"?>
<!DOCTYPE svg PUBLIC "-//W3C//DTD SVG 20010904//EN"
 "http://www.w3.org/TR/2001/REC-SVG-20010904/DTD/svg10.dtd">
<svg version="1.0" xmlns="http://www.w3.org/2000/svg"
 width="920.000000pt" height="348.000000pt" viewBox="0 0 920.000000 348.000000"
 preserveAspectRatio="xMidYMid meet">

<g transform="translate(0.000000,348.000000) scale(0.100000,-0.100000)"
fill="#000000" stroke="none">
<path d="M5160 3073 c-142 -6 -389 -25 -455 -34 -134 -20 -390 -94 -527 -153
-69 -30 -448 -263 -753 -464 -104 -69 -211 -134 -236 -143 -49 -19 -140 -33
-319 -48 -58 -6 -258 -28 -445 -49 -825 -96 -1061 -145 -1400 -289 -160 -68
-241 -111 -322 -171 -81 -61 -94 -92 -100 -247 -5 -112 -3 -128 28 -245 46
-176 42 -287 -17 -501 -3 -9 3 -24 11 -33 14 -14 52 -16 290 -16 245 0 275 2
294 18 29 23 28 45 -4 120 -140 332 2 702 330 858 245 118 534 70 734 -121 88
-84 141 -167 178 -280 22 -67 27 -98 27 -195 0 -123 -14 -192 -60 -282 -13
-26 -24 -50 -24 -53 0 -3 907 -5 2015 -5 1108 0 2015 2 2015 4 0 2 -11 29 -25
61 -38 85 -55 169 -55 275 0 116 17 188 72 300 58 120 178 240 298 298 125 61
191 75 330 69 179 -7 300 -56 430 -175 160 -145 250 -397 213 -598 l-10 -52
58 -17 c52 -16 75 -17 236 -6 311 19 420 68 497 220 57 112 75 239 86 601 7
229 13 302 29 370 26 107 26 153 1 209 -11 24 -20 52 -20 62 0 10 -3 19 -7 20
-5 0 -87 2 -183 3 -345 6 -579 63 -940 229 -460 211 -852 352 -1120 402 -233
43 -817 73 -1150 58z m766 -218 c225 -22 432 -58 554 -98 l105 -35 -612 -1
c-590 -1 -613 0 -613 18 0 25 20 83 35 99 29 32 288 40 531 17z m-826 -14 c0
-4 -5 -21 -10 -38 l-11 -29 -392 -48 c-216 -26 -408 -49 -427 -52 l-35 -5 47
26 c120 64 308 106 633 139 162 17 195 18 195 7z m-3867 -1139 l47 -7 -119
-126 -119 -125 -149 -12 c-81 -7 -155 -12 -165 -12 -33 0 -63 144 -38 189 29
54 383 115 543 93z"/>
<path d="M6862 1711 c-124 -31 -217 -84 -308 -176 -65 -64 -90 -98 -122 -166
-174 -360 -10 -766 366 -907 90 -34 275 -42 372 -17 119 30 206 81 301 175
134 133 193 274 192 460 -1 355 -271 632 -628 646 -75 3 -118 -1 -173 -15z
m297 -160 c64 -20 151 -66 151 -80 0 -10 -287 -314 -301 -319 -7 -3 -333 212
-364 239 -26 25 133 137 234 165 72 19 209 17 280 -5z m230 -148 c136 -159
159 -378 59 -565 -17 -32 -36 -58 -42 -57 -6 0 -82 68 -169 152 l-158 152 59
85 c32 47 89 129 126 183 37 53 71 97 76 97 5 0 27 -21 49 -47z m-608 -174
c87 -84 159 -156 159 -161 0 -6 -225 -342 -247 -367 -6 -8 -55 45 -94 103 -73
110 -100 272 -65 402 13 48 73 174 83 174 3 0 77 -68 164 -151z m426 -345
l185 -126 -44 -45 c-93 -95 -259 -147 -405 -126 -76 11 -229 76 -227 97 1 8
294 323 302 325 2 1 87 -56 189 -125z"/>
<path d="M1645 1691 c-164 -48 -282 -136 -373 -278 -67 -105 -87 -185 -87
-343 1 -120 4 -142 27 -202 76 -199 223 -339 418 -400 110 -34 275 -32 380 4
113 40 167 74 256 162 125 126 184 266 184 442 0 294 -201 553 -483 619 -85
20 -246 18 -322 -4z m318 -139 l27 -12 -100 -201 c-62 -123 -106 -199 -113
-196 -7 2 -102 32 -212 67 -110 34 -201 64 -203 65 -11 9 50 99 102 151 63 63
136 107 216 130 54 16 241 13 283 -4z m123 -60 c108 -70 189 -187 215 -310 13
-64 7 -199 -11 -249 l-12 -32 -199 99 c-109 55 -199 104 -199 109 0 8 48 162
111 359 12 34 24 62 28 62 4 0 35 -17 67 -38z m-533 -338 c105 -53 194 -98
196 -100 2 -1 -27 -100 -65 -218 l-68 -215 -50 27 c-109 59 -210 195 -237 322
-18 85 0 280 26 280 3 0 92 -43 198 -96z m513 -210 l205 -65 -27 -49 c-35 -64
-135 -160 -202 -194 -79 -40 -174 -59 -262 -52 -67 5 -140 21 -140 32 0 2 44
92 97 199 56 112 104 195 112 195 7 0 105 -30 217 -66z"/>
</g>
</svg>
